# xmcd CD database file
#
# Track frame offsets:
#	150
#	18665
#	41350
#	57267
#	82910
#	99332
#	121125
#	144437
#	166560
#	177612
#	196720
#	216705
#	236780
#	251005
#	271612
#	291310
#	314225
#
# Disc length: 4442 seconds
#
# Revision: 0
# Processed by: cddbd v1.5.1PL2 Copyright (c) Steve Scherf et al.
# Submitted via: CDex 1.51
#
DISCID=f3115811
DTITLE=吉幾三 - 吉幾三大全集2
DYEAR=1993
DGENRE=World
TTITLE0=酒よ
TTITLE1=港
TTITLE2=じょんがら恋唄
TTITLE3=と・も・子
TTITLE4=第三向洋丸
TTITLE5=酔歌
TTITLE6=夜更けのメロディー
TTITLE7=津軽路
TTITLE8=俺はぜったいプレスリー
TTITLE9=演歌がいいね
TTITLE10=津軽恋唄
TTITLE11=別れて北へ
TTITLE12=酒もってこい
TTITLE13=羅臼
TTITLE14=女のかぞえ唄
TTITLE15=釜山
TTITLE16=酔待酒
EXTD=YEAR: 1993
EXTT0=
EXTT1=
EXTT2=
EXTT3=
EXTT4=
EXTT5=
EXTT6=
EXTT7=
EXTT8=
EXTT9=
EXTT10=
EXTT11=
EXTT12=
EXTT13=
EXTT14=
EXTT15=
EXTT16=
PLAYORDER=
